<svg width="119" height="26" viewBox="0 0 119 26" fill="none" xmlns="http://www.w3.org/2000/svg">
<path d="M20.1369 25.5737C22.8983 25.5737 25.1842 23.3162 24.6732 20.6025C24.3528 18.9011 23.8679 17.2331 23.2235 15.6239C21.9602 12.4695 20.1087 9.60318 17.7745 7.1889C15.4403 4.77458 12.6692 2.85943 9.61948 1.55281C8.11383 0.907744 6.55481 0.417222 4.96489 0.0858795C2.26154 -0.477499 0 1.81226 0 4.57368V20.5737C0 23.3351 2.23858 25.5737 5 25.5737H20.1369Z" fill="#615DFF"/>
<path d="M13.7015 25.5737C10.94 25.5737 8.65411 23.3162 9.16518 20.6025C9.4856 18.9011 9.97047 17.2331 10.6149 15.6239C11.8782 12.4695 13.7297 9.60318 16.0639 7.1889C18.3981 4.77458 21.1692 2.85943 24.2189 1.55281C25.7246 0.907744 27.2836 0.417222 28.8735 0.0858795C31.5769 -0.477499 33.8384 1.81226 33.8384 4.57368V20.5737C33.8384 23.3351 31.5998 25.5737 28.8384 25.5737H13.7015Z" fill="#3DD9EB"/>
<path d="M20.1369 25.5737C22.8983 25.5737 25.1842 23.3162 24.6732 20.6025C24.3528 18.9011 23.8679 17.2331 23.2235 15.6239C21.9602 12.4695 20.1087 9.60318 17.7745 7.1889C15.4403 4.77458 12.6692 2.85943 9.61949 1.55281C8.11383 0.907744 6.55481 0.417221 4.96489 0.0858795C2.26154 -0.477499 0 1.81226 0 4.57368V20.5737C0 23.3351 2.23858 25.5737 5 25.5737H20.1369Z" fill="#615DFF"/>
<g style="mix-blend-mode:multiply">
<path d="M13.7015 25.5737C10.9401 25.5737 8.65411 23.3162 9.16518 20.6025C9.4856 18.9011 9.97047 17.2331 10.6149 15.6239C11.8782 12.4695 13.7297 9.60318 16.0639 7.1889C18.3981 4.77458 21.1692 2.85943 24.2189 1.55281C25.7246 0.907744 27.2836 0.417221 28.8735 0.0858795C31.5769 -0.477499 33.8384 1.81226 33.8384 4.57368V20.5737C33.8384 23.3351 31.5998 25.5737 28.8384 25.5737H13.7015Z" fill="#3DD9EB"/>
</g>
<path d="M41.414 20V8.1H43.998L49.03 14.934H47.313L52.362 8.1H54.912V20H52.107V16.192C52.107 15.2173 52.1297 14.322 52.175 13.506C52.2203 12.6787 52.311 11.8457 52.447 11.007L52.736 11.925L48.707 17.11H47.585L43.556 11.925L43.879 11.007C44.0037 11.823 44.0887 12.6447 44.134 13.472C44.1907 14.288 44.219 15.1947 44.219 16.192V20H41.414ZM59.0791 23.91L61.6291 19.082L61.5101 20.425L56.4611 10.973H59.6231L61.9521 15.767C62.1448 16.1183 62.3205 16.481 62.4791 16.855C62.6491 17.2177 62.7908 17.586 62.9041 17.96L62.3091 18.028C62.4338 17.7333 62.5755 17.3933 62.7341 17.008C62.8928 16.6227 63.0628 16.2317 63.2441 15.835L65.4711 10.973H68.5821L63.8221 20.068L61.8671 23.91H59.0791ZM81.8886 20.17C80.9026 20.17 79.9903 20.0227 79.1516 19.728C78.3129 19.4333 77.5763 19.014 76.9416 18.47C76.3183 17.9147 75.8309 17.263 75.4796 16.515C75.1283 15.7557 74.9526 14.917 74.9526 13.999C74.9526 13.1037 75.1339 12.282 75.4966 11.534C75.8593 10.786 76.3523 10.1343 76.9756 9.579C77.5989 9.02367 78.3299 8.59867 79.1686 8.304C80.0186 8.00933 80.9309 7.862 81.9056 7.862C82.5969 7.862 83.2599 7.947 83.8946 8.117C84.5406 8.27567 85.1356 8.49667 85.6796 8.78C86.2349 9.052 86.7053 9.36367 87.0906 9.715L85.4076 11.925C85.1129 11.6643 84.7899 11.432 84.4386 11.228C84.0873 11.0127 83.6906 10.8427 83.2486 10.718C82.8179 10.5933 82.3306 10.531 81.7866 10.531C81.2879 10.531 80.8119 10.6103 80.3586 10.769C79.9053 10.9163 79.4916 11.143 79.1176 11.449C78.7549 11.7437 78.4659 12.112 78.2506 12.554C78.0353 12.9847 77.9276 13.4777 77.9276 14.033C77.9276 14.5883 78.0409 15.087 78.2676 15.529C78.4943 15.9597 78.8003 16.328 79.1856 16.634C79.5709 16.9287 80.0129 17.1553 80.5116 17.314C81.0216 17.4613 81.5599 17.535 82.1266 17.535C82.6706 17.535 83.1579 17.4613 83.5886 17.314C84.0306 17.1553 84.4273 16.9683 84.7786 16.753C85.1299 16.5263 85.4359 16.3053 85.6966 16.09L87.0736 18.317C86.7563 18.6117 86.3256 18.9007 85.7816 19.184C85.2489 19.4673 84.6483 19.7053 83.9796 19.898C83.3109 20.0793 82.6139 20.17 81.8886 20.17ZM88.8028 20V8.1H95.1438C96.0278 8.1 96.7928 8.25867 97.4388 8.576C98.0848 8.89333 98.5835 9.341 98.9348 9.919C99.2975 10.4857 99.4788 11.1487 99.4788 11.908C99.4788 12.656 99.2862 13.336 98.9008 13.948C98.5268 14.5487 98.0112 15.019 97.3538 15.359C96.6965 15.699 95.9598 15.869 95.1438 15.869H91.5568V20H88.8028ZM96.7588 20L93.0868 14.628L96.0958 14.203L100.108 20H96.7588ZM91.5568 13.659H94.8208C95.1608 13.659 95.4612 13.591 95.7218 13.455C95.9825 13.319 96.1865 13.132 96.3338 12.894C96.4925 12.656 96.5718 12.3783 96.5718 12.061C96.5718 11.7437 96.4925 11.4717 96.3338 11.245C96.1752 11.007 95.9542 10.8257 95.6708 10.701C95.3988 10.5763 95.0815 10.514 94.7188 10.514H91.5568V13.659ZM102.136 20V8.1H104.72L109.752 14.934H108.035L113.084 8.1H115.634V20H112.829V16.192C112.829 15.2173 112.852 14.322 112.897 13.506C112.942 12.6787 113.033 11.8457 113.169 11.007L113.458 11.925L109.429 17.11H108.307L104.278 11.925L104.601 11.007C104.726 11.823 104.811 12.6447 104.856 13.472C104.913 14.288 104.941 15.1947 104.941 16.192V20H102.136Z" fill="black"/>
</svg>
