<svg width="119" height="26" viewBox="0 0 119 26" fill="none" xmlns="http://www.w3.org/2000/svg">
<path d="M105.137 25.5737C107.898 25.5737 110.184 23.3162 109.673 20.6025C109.353 18.9011 108.868 17.2331 108.223 15.6239C106.96 12.4695 105.109 9.60318 102.774 7.1889C100.44 4.77458 97.6692 2.85943 94.6195 1.55281C93.1138 0.907744 91.5548 0.417222 89.9649 0.0858795C87.2615 -0.477499 85 1.81226 85 4.57368V20.5737C85 23.3351 87.2386 25.5737 90 25.5737H105.137Z" fill="#615DFF"/>
<path d="M98.7015 25.5737C95.94 25.5737 93.6541 23.3162 94.1652 20.6025C94.4856 18.9011 94.9705 17.2331 95.6149 15.6239C96.8782 12.4695 98.7297 9.60318 101.064 7.1889C103.398 4.77458 106.169 2.85943 109.219 1.55281C110.725 0.907744 112.284 0.417222 113.873 0.0858795C116.577 -0.477499 118.838 1.81226 118.838 4.57368V20.5737C118.838 23.3351 116.6 25.5737 113.838 25.5737H98.7015Z" fill="#3DD9EB"/>
<path d="M2.414 20V8.1H4.998L10.03 14.934H8.313L13.362 8.1H15.912V20H13.107V16.192C13.107 15.2173 13.1297 14.322 13.175 13.506C13.2203 12.6787 13.311 11.8457 13.447 11.007L13.736 11.925L9.707 17.11H8.585L4.556 11.925L4.879 11.007C5.00367 11.823 5.08867 12.6447 5.134 13.472C5.19067 14.288 5.219 15.1947 5.219 16.192V20H2.414ZM20.0791 23.91L22.6291 19.082L22.5101 20.425L17.4611 10.973H20.6231L22.9521 15.767C23.1448 16.1183 23.3205 16.481 23.4791 16.855C23.6491 17.2177 23.7908 17.586 23.9041 17.96L23.3091 18.028C23.4338 17.7333 23.5755 17.3933 23.7341 17.008C23.8928 16.6227 24.0628 16.2317 24.2441 15.835L26.4711 10.973H29.5821L24.8221 20.068L22.8671 23.91H20.0791ZM42.8886 20.17C41.9026 20.17 40.9903 20.0227 40.1516 19.728C39.3129 19.4333 38.5763 19.014 37.9416 18.47C37.3183 17.9147 36.8309 17.263 36.4796 16.515C36.1283 15.7557 35.9526 14.917 35.9526 13.999C35.9526 13.1037 36.1339 12.282 36.4966 11.534C36.8593 10.786 37.3523 10.1343 37.9756 9.579C38.5989 9.02367 39.3299 8.59867 40.1686 8.304C41.0186 8.00933 41.9309 7.862 42.9056 7.862C43.5969 7.862 44.2599 7.947 44.8946 8.117C45.5406 8.27567 46.1356 8.49667 46.6796 8.78C47.2349 9.052 47.7053 9.36367 48.0906 9.715L46.4076 11.925C46.1129 11.6643 45.7899 11.432 45.4386 11.228C45.0873 11.0127 44.6906 10.8427 44.2486 10.718C43.8179 10.5933 43.3306 10.531 42.7866 10.531C42.2879 10.531 41.8119 10.6103 41.3586 10.769C40.9053 10.9163 40.4916 11.143 40.1176 11.449C39.7549 11.7437 39.4659 12.112 39.2506 12.554C39.0353 12.9847 38.9276 13.4777 38.9276 14.033C38.9276 14.5883 39.0409 15.087 39.2676 15.529C39.4943 15.9597 39.8003 16.328 40.1856 16.634C40.5709 16.9287 41.0129 17.1553 41.5116 17.314C42.0216 17.4613 42.5599 17.535 43.1266 17.535C43.6706 17.535 44.1579 17.4613 44.5886 17.314C45.0306 17.1553 45.4273 16.9683 45.7786 16.753C46.1299 16.5263 46.4359 16.3053 46.6966 16.09L48.0736 18.317C47.7563 18.6117 47.3256 18.9007 46.7816 19.184C46.2489 19.4673 45.6483 19.7053 44.9796 19.898C44.3109 20.0793 43.6139 20.17 42.8886 20.17ZM49.8028 20V8.1H56.1438C57.0278 8.1 57.7928 8.25867 58.4388 8.576C59.0848 8.89333 59.5835 9.341 59.9348 9.919C60.2975 10.4857 60.4788 11.1487 60.4788 11.908C60.4788 12.656 60.2862 13.336 59.9008 13.948C59.5268 14.5487 59.0112 15.019 58.3538 15.359C57.6965 15.699 56.9598 15.869 56.1438 15.869H52.5568V20H49.8028ZM57.7588 20L54.0868 14.628L57.0958 14.203L61.1078 20H57.7588ZM52.5568 13.659H55.8208C56.1608 13.659 56.4612 13.591 56.7218 13.455C56.9825 13.319 57.1865 13.132 57.3338 12.894C57.4925 12.656 57.5718 12.3783 57.5718 12.061C57.5718 11.7437 57.4925 11.4717 57.3338 11.245C57.1752 11.007 56.9542 10.8257 56.6708 10.701C56.3988 10.5763 56.0815 10.514 55.7188 10.514H52.5568V13.659ZM63.1359 20V8.1H65.7199L70.7519 14.934H69.0349L74.0839 8.1H76.6339V20H73.8289V16.192C73.8289 15.2173 73.8515 14.322 73.8969 13.506C73.9422 12.6787 74.0329 11.8457 74.1689 11.007L74.4579 11.925L70.4289 17.11H69.3069L65.2779 11.925L65.6009 11.007C65.7255 11.823 65.8105 12.6447 65.8559 13.472C65.9125 14.288 65.9409 15.1947 65.9409 16.192V20H63.1359Z" fill="#F2F2F2"/>
</svg>
